{
  "chapters": [],
  "format": {
    "bit_rate": "14594600",
    "duration": "0.040000",
    "filename": "/workspaces/typed-ffmpeg/src/ffmpeg/tests/test_probe/test_data/Cle9pQ5.jpg",
    "format_long_name": "image2 sequence",
    "format_name": "image2",
    "nb_programs": 0,
    "nb_streams": 1,
    "probe_score": 50,
    "size": "72973",
    "start_time": "0.000000"
  },
  "packets_and_frames": [
    {
      "codec_type": "video",
      "dts": 0,
      "dts_time": "0.000000",
      "duration": 1,
      "duration_time": "0.040000",
      "flags": "K__",
      "pts": 0,
      "pts_time": "0.000000",
      "size": "72973",
      "stream_index": 0,
      "type": "packet"
    },
    {
      "best_effort_timestamp": 0,
      "best_effort_timestamp_time": "0.000000",
      "chroma_location": "center",
      "coded_picture_number": 0,
      "color_range": "pc",
      "color_space": "bt470bg",
      "display_picture_number": 0,
      "duration": 1,
      "duration_time": "0.040000",
      "height": 668,
      "interlaced_frame": 0,
      "key_frame": 1,
      "media_type": "video",
      "pict_type": "I",
      "pix_fmt": "yuvj420p",
      "pkt_dts": 0,
      "pkt_dts_time": "0.000000",
      "pkt_duration": 1,
      "pkt_duration_time": "0.040000",
      "pkt_size": "72973",
      "pts": 0,
      "pts_time": "0.000000",
      "repeat_pict": 0,
      "stream_index": 0,
      "top_field_first": 0,
      "type": "frame",
      "width": 720
    }
  ],
  "programs": [],
  "streams": [
    {
      "avg_frame_rate": "25/1",
      "bits_per_raw_sample": "8",
      "chroma_location": "center",
      "closed_captions": 0,
      "codec_long_name": "Motion JPEG",
      "codec_name": "mjpeg",
      "codec_tag": "0x0000",
      "codec_tag_string": "[0][0][0][0]",
      "codec_type": "video",
      "coded_height": 668,
      "coded_width": 720,
      "color_range": "pc",
      "color_space": "bt470bg",
      "disposition": {
        "attached_pic": 0,
        "captions": 0,
        "clean_effects": 0,
        "comment": 0,
        "default": 0,
        "dependent": 0,
        "descriptions": 0,
        "dub": 0,
        "forced": 0,
        "hearing_impaired": 0,
        "karaoke": 0,
        "lyrics": 0,
        "metadata": 0,
        "original": 0,
        "still_image": 0,
        "timed_thumbnails": 0,
        "visual_impaired": 0
      },
      "duration": "0.040000",
      "duration_ts": 1,
      "film_grain": 0,
      "has_b_frames": 0,
      "height": 668,
      "index": 0,
      "level": -99,
      "nb_read_frames": "1",
      "nb_read_packets": "1",
      "pix_fmt": "yuvj420p",
      "profile": "Progressive",
      "r_frame_rate": "25/1",
      "refs": 1,
      "start_pts": 0,
      "start_time": "0.000000",
      "time_base": "1/25",
      "width": 720
    }
  ]
}
